<svg width="36" height="33" viewBox="0 0 36 33" fill="none" xmlns="http://www.w3.org/2000/svg">
<path fill-rule="evenodd" clip-rule="evenodd" d="M25.5003 8C25.5003 12.1421 22.1424 15.5 18.0003 15.5C13.8582 15.5 10.5003 12.1421 10.5003 8C10.5003 3.85786 13.8582 0.5 18.0003 0.5C22.1424 0.5 25.5003 3.85786 25.5003 8ZM23.0003 8C23.0003 10.7614 20.7617 13 18.0003 13C15.2389 13 13.0003 10.7614 13.0003 8C13.0003 5.23858 15.2389 3 18.0003 3C20.7617 3 23.0003 5.23858 23.0003 8Z" fill="#959595"/>
<path d="M18.0003 19.25C9.90733 19.25 3.0119 24.0355 0.385254 30.7401C1.02512 31.3754 1.69918 31.9765 2.40441 32.5401C4.36034 26.3846 10.4962 21.75 18.0003 21.75C25.5044 21.75 31.6403 26.3846 33.5962 32.5401C34.3014 31.9765 34.9755 31.3755 35.6154 30.7401C32.9887 24.0355 26.0933 19.25 18.0003 19.25Z" fill="#959595"/>
</svg>
